<?xml version="1.0" encoding="UTF-8"?><svg id="_레이어_2" xmlns="http://www.w3.org/2000/svg" viewBox="0 0 451.46 451.46"><defs><style>.cls-1{stroke-dasharray:0 0 0 0 0 0 83.33 27.78 111.11 83.33 27.78 111.11;stroke-width:.9px;}.cls-1,.cls-2{fill:none;stroke:#fff;stroke-miterlimit:10;}.cls-3{fill:#fff;stroke-width:0px;}</style></defs><g id="_레이어_1-2"><circle class="cls-3" cx="225.73" cy="225.73" r="78.59"/><circle class="cls-1" cx="225.73" cy="225.73" r="141.47"/><line class="cls-2" x1="225.73" y1="225.73" x2="192.01" y2="99.9"/><line class="cls-2" x1="173.28" y1="134.88" x2="134.05" y2="66.94"/><line class="cls-2" x1="134.88" y1="173.28" x2="66.94" y2="134.05"/><line class="cls-2" x1="120.83" y1="225.73" x2="42.37" y2="225.73"/><line class="cls-2" x1="134.88" y1="278.18" x2="66.94" y2="317.41"/><line class="cls-2" x1="173.28" y1="316.58" x2="134.05" y2="384.53"/><line class="cls-2" x1="225.73" y1="330.63" x2="225.73" y2="409.09"/><line class="cls-2" x1="278.18" y1="316.58" x2="317.41" y2="384.53"/><line class="cls-2" x1="316.58" y1="278.18" x2="384.53" y2="317.41"/><line class="cls-2" x1="330.63" y1="225.73" x2="409.09" y2="225.73"/><line class="cls-2" x1="316.58" y1="173.28" x2="384.53" y2="134.05"/><line class="cls-2" x1="278.18" y1="134.88" x2="317.41" y2="66.94"/><line class="cls-2" x1="225.73" y1="120.83" x2="225.73" y2="42.37"/><line class="cls-2" x1="193.96" y1="45.55" x2="185.94" y2=".09"/><line class="cls-2" x1="108.12" y1="85.57" x2="78.45" y2="50.21"/><line class="cls-2" x1="53.8" y1="163.15" x2="10.42" y2="147.37"/><line class="cls-2" x1="45.55" y1="257.5" x2=".09" y2="265.52"/><line class="cls-2" x1="85.57" y1="343.34" x2="50.21" y2="373.01"/><line class="cls-2" x1="163.15" y1="397.66" x2="147.37" y2="441.04"/><line class="cls-2" x1="257.5" y1="405.92" x2="265.52" y2="451.38"/><line class="cls-2" x1="343.34" y1="365.89" x2="373.01" y2="401.25"/><line class="cls-2" x1="397.66" y1="288.31" x2="441.04" y2="304.1"/><line class="cls-2" x1="405.92" y1="193.96" x2="451.38" y2="185.94"/><line class="cls-2" x1="365.89" y1="108.12" x2="401.25" y2="78.45"/><line class="cls-2" x1="288.31" y1="53.8" x2="304.1" y2="10.42"/><line class="cls-2" x1="225.73" y1="225.73" x2="133.62" y2="133.62"/><line class="cls-2" x1="225.73" y1="225.73" x2="99.9" y2="192.01"/><line class="cls-2" x1="225.73" y1="225.73" x2="99.9" y2="259.45"/><line class="cls-2" x1="225.73" y1="225.73" x2="133.62" y2="317.85"/><line class="cls-2" x1="225.73" y1="225.73" x2="192.01" y2="351.56"/><line class="cls-2" x1="225.73" y1="225.73" x2="259.45" y2="351.56"/><line class="cls-2" x1="225.73" y1="225.73" x2="317.85" y2="317.85"/><line class="cls-2" x1="225.73" y1="225.73" x2="351.56" y2="259.45"/><line class="cls-2" x1="225.73" y1="225.73" x2="351.56" y2="192.01"/><line class="cls-2" x1="225.73" y1="225.73" x2="317.85" y2="133.62"/><line class="cls-2" x1="225.73" y1="225.73" x2="259.45" y2="99.9"/></g></svg>